#!OML:ASF G:\JayActor3\Patient Classification 1\Patient 1\Session 2\male.ASF
:FULLY-SPECIFIED
:DEGREES
1104
root 46.3964 16.4378 -5.0351 -895.463 31.3388 -172.773
lowerback -2.48631 2.35984 2.69999
upperback 3.81078 3.10212 0.0730813
thorax 5.48052 1.68222 -1.20393
lowerneck -9.58243 3.64256 4.50326
upperneck 23.8554 7.70277 -8.27654
head 9.58753 3.62603 -2.68022
rclavicle 1.90833e-014 1.03368e-014
rhumerus -5.8091 24.4329 -77.1131
rradius 43.0684
rwrist -2.56814
rhand -6.53463 9.01189
rfingers 7.12502
rthumb 19.3183 -20.0486
lclavicle 1.90833e-014 1.03368e-014
lhumerus -19.8701 -3.77296 62.7334
lradius 20.6942
lwrist 13.1271
lhand -27.069 19.4565
lfingers 7.12502
lthumb -0.48675 49.4357
rfemur -6.2698 -16.726 27.0615
rtibia 53.5263
rfoot -25.5505 -14.0142
rtoes 18.5864
lfemur -23.8665 20.9873 -28.5308
ltibia 27.8429
lfoot -33.9649 34.5947
ltoes 22.5449
1105
root 46.4453 16.4434 -5.1093 -895.57 30.5683 -172.864
lowerback -2.42655 2.28338 2.70841
upperback 3.86544 3.0052 0.0538295
thorax 5.50092 1.63735 -1.23699
lowerneck -9.51462 3.67369 4.50757
upperneck 23.8061 7.78985 -8.39254
head 9.56895 3.663 -2.71124
rclavicle -3.79679e-014 1.59028e-014
rhumerus -6.66771 24.5253 -77.6873
rradius 42.8897
rwrist -2.19763
rhand -6.51943 9.03778
rfingers 7.12502
rthumb 19.333 -20.0212
lclavicle -3.79679e-014 1.59028e-014
lhumerus -20.3292 -2.78015 62.9137
lradius 20.0074
lwrist 12.18
lhand -26.8113 19.5597
lfingers 7.12502
lthumb -0.237816 49.5393
rfemur -7.20155 -16.8606 26.6874
rtibia 55.5684
rfoot -23.5014 -14.4969
rtoes 18.4181
lfemur -23.3784 20.7349 -28.4861
ltibia 27.752
lfoot -33.7366 34.2518
ltoes 22.316
1106
root 46.494 16.4469 -5.18241 -895.699 29.7436 -172.965
lowerback -2.3647 2.19816 2.67585
upperback 3.93498 2.8986 0.0526287
thorax 5.53198 1.58624 -1.22883
lowerneck -9.46813 3.69725 4.50473
upperneck 23.7639 7.86542 -8.50259
head 9.55573 3.69378 -2.73997
rclavicle -6.99722e-014 2.8625e-014
rhumerus -7.53825 24.6024 -78.2226
rradius 42.7253
rwrist -1.88701
rhand -6.54523 9.04353
rfingers 7.12502
rthumb 19.3082 -20.0179
lclavicle -6.99722e-014 2.8625e-014
lhumerus -20.7464 -1.80276 63.1482
lradius 19.3167
lwrist 11.1461
lhand -26.567 19.6492
lfingers 7.12502
lthumb -0.00186044 49.629
rfemur -8.10993 -16.9173 26.3144
rtibia 57.5232
rfoot -21.4459 -14.7591
rtoes 17.8692
lfemur -22.9062 20.5171 -28.4533
ltibia 27.7025
lfoot -33.4524 33.8557
ltoes 22.0593
1107
root 46.5432 16.4484 -5.25377 -895.86 28.8709 -173.092
lowerback -2.28589 2.10466 2.58205
upperback 4.01619 2.78475 0.0622643
thorax 5.56159 1.52921 -1.17613
lowerneck -9.44034 3.7146 4.49955
upperneck 23.7256 7.92923 -8.60479
head 9.5462 3.71876 -2.76664
rclavicle 1.5207e-014 -7.95139e-015
rhumerus -8.42208 24.6516 -78.7331
rradius 42.5617
rwrist -1.64693
rhand -6.61397 9.02771
rfingers 7.12502
rthumb 19.2421 -20.0404
lclavicle 1.5207e-014 -7.95139e-015
lhumerus -21.1351 -0.89714 63.4433
lradius 18.6524
lwrist 10.1043
lhand -26.3571 19.737
lfingers 7.12502
lthumb 0.200823 49.7167
rfemur -8.98997 -16.8824 25.9348
rtibia 59.3682
rfoot -19.4911 -14.7291
rtoes 16.8929
lfemur -22.4405 20.3313 -28.4418
ltibia 27.6817
lfoot -33.1069 33.4166
ltoes 21.7665
1108
root 46.5931 16.4483 -5.32299 -896.057 27.9558 -173.256
lowerback -2.18087 2.00434 2.41654
upperback 4.10724 2.66658 0.076633
thorax 5.58292 1.46726 -1.07946
lowerneck -9.42671 3.72652 4.49552
upperneck 23.6857 7.98102 -8.69991
head 9.53769 3.73813 -2.79222
rclavicle 5.20816e-014 -1.66979e-014
rhumerus -9.31704 24.6581 -79.2293
rradius 42.382
rwrist -1.47523
rhand -6.72444 8.99038
rfingers 7.12502
rthumb 19.1358 -20.0882
lclavicle 5.20816e-014 -1.66979e-014
lhumerus -21.5059 -0.123894 63.809
lradius 18.0447
lwrist 9.13904
lhand -26.1904 19.8391
lfingers 7.12502
lthumb 0.361897 49.8185
rfemur -9.83838 -16.7477 25.5438
rtibia 61.0837
rfoot -17.7399 -14.3931
rtoes 15.4905
lfemur -21.9723 20.1696 -28.4565
ltibia 27.6778
lfoot -32.7042 32.9451
ltoes 21.4325
1109
root 46.644 16.4466 -5.39001 -896.292 27.0035 -173.461
lowerback -2.04739 1.89949 2.17691
upperback 4.20818 2.54736 0.0913393
thorax 5.5955 1.40196 -0.9417
lowerneck -9.42217 3.73297 4.4919
upperneck 23.6382 8.02056 -8.78971
head 9.52711 3.75168 -2.81731
rclavicle 1.88845e-015 -6.36111e-015
rhumerus -10.2168 24.607 -79.7154
rradius 42.1686
rwrist -1.35796
rhand -6.86989 8.93612
rfingers 7.12502
rthumb 18.996 -20.1563
lclavicle 1.88845e-015 -6.36111e-015
lhumerus -21.8646 0.47565 64.2535
lradius 17.5169
lwrist 8.30459
lhand -26.0491 19.9584
lfingers 7.12502
lthumb 0.498357 49.9376
rfemur -10.6536 -16.5124 25.1368
rtibia 62.6563
rfoot -16.2756 -13.7957
rtoes 13.7374
lfemur -21.4944 20.0202 -28.4999
ltibia 27.6821
lfoot -32.2627 32.4475
ltoes 21.0651
1110
root 46.6957 16.4438 -5.45501 -896.559 26.0171 -173.707
lowerback -1.89023 1.7925 1.8714
upperback 4.31909 2.42968 0.102909
thorax 5.60338 1.335 -0.77054
lowerneck -9.42159 3.73396 4.48625
upperneck 23.5784 8.04816 -8.87547
head 9.51175 3.75946 -2.84197
rclavicle 1.56046e-014 -2.06736e-014
rhumerus -11.1132 24.4847 -80.1924
rradius 41.9047
rwrist -1.27297
rhand -7.04244 8.86995
rfingers 7.12502
rthumb 18.83 -20.2386
lclavicle 1.56046e-014 -2.06736e-014
lhumerus -22.215 0.876894 64.7806
lradius 17.0874
lwrist 7.62793
lhand -25.8943 20.0831
lfingers 7.12502
lthumb 0.647877 50.0619
rfemur -11.4386 -16.1825 24.7128
rtibia 64.0788
rfoot -15.1471 -13.0263
rtoes 11.7727
lfemur -21.0054 19.8694 -28.5721
ltibia 27.6898
lfoot -31.8033 31.9294
ltoes 20.6741
1111
root 46.748 16.44 -5.51838 -896.844 24.9991 -173.987
lowerback -1.72068 1.68582 1.51619
upperback 4.43892 2.31549 0.109797
thorax 5.61323 1.26798 -0.575983
lowerneck -9.42041 3.72932 4.4744
upperneck 23.5046 8.0646 -8.95698
head 9.4901 3.76176 -2.86539
rclavicle -1.45113e-014 -7.15625e-015
rhumerus -11.9979 24.2804 -80.6585
rradius 41.5759
rwrist -1.19355
rhand -7.23333 8.79874
rfingers 7.12502
rthumb 18.6464 -20.3276
lclavicle -1.45113e-014 -7.15625e-015
lhumerus -22.5618 1.07002 65.3913
lradius 16.7719
lwrist 7.12021
lhand -25.686 20.2007
lfingers 7.12502
lthumb 0.84897 50.1788
rfemur -12.2012 -15.7687 24.2752
rtibia 65.3501
rfoot -14.367 -12.1983
rtoes 9.76346
lfemur -20.5117 19.7095 -28.6702
ltibia 27.7005
lfoot -31.3393 31.3944
ltoes 20.2631
1112
root 46.8005 16.4354 -5.58057 -897.132 23.9519 -174.289
lowerback -1.55152 1.58196 1.13278
upperback 4.56445 2.20666 0.11079
thorax 5.63026 1.20259 -0.370791
lowerneck -9.41447 3.7187 4.45496
upperneck 23.4191 8.07038 -9.03319
head 9.46206 3.75912 -2.88698
rclavicle -1.35174e-014 7.15625e-015
rhumerus -12.8658 23.9854 -81.1127
rradius 41.1707
rwrist -1.09327
rhand -7.4368 8.72869
rfingers 7.12502
rthumb 18.4507 -20.4163
lclavicle -1.35174e-014 7.15625e-015
lhumerus -22.9115 1.05353 66.0824
lradius 16.583
lwrist 6.78486
lhand -25.3901 20.295
lfingers 7.12502
lthumb 1.1348 50.2717
rfemur -12.9528 -15.2829 23.831
rtibia 66.4733
rfoot -13.9177 -11.4225
rtoes 7.86769
lfemur -20.0253 19.5346 -28.7887
ltibia 27.7178
lfoot -30.8829 30.8442
ltoes 19.8392
1113
root 46.8526 16.4304 -5.642 -897.403 22.8779 -174.598
lowerback -1.39576 1.48369 0.746724
upperback 4.69039 2.10519 0.105947
thorax 5.65746 1.14069 -0.168792
lowerneck -9.40079 3.70171 4.42972
upperneck 23.3276 8.06556 -9.10167
head 9.42903 3.75227 -2.90626
rclavicle -6.48038e-014 1.90833e-014
rhumerus -13.7146 23.5893 -81.5549
rradius 40.6806
rwrist -0.948609
rhand -7.65075 8.66465
rfingers 7.12502
rthumb 18.2449 -20.4997
lclavicle -6.48038e-014 1.90833e-014
lhumerus -23.2722 0.823616 66.8508
lradius 16.532
lwrist 6.63371
lhand -24.9894 20.3591
lfingers 7.12502
lthumb 1.52184 50.3334
rfemur -13.7072 -14.7341 23.3928
rtibia 67.4527
rfoot -13.7726 -10.7832
rtoes 6.23789
lfemur -19.563 19.3422 -28.9176
ltibia 27.7483
lfoot -30.4391 30.2806
ltoes 19.405
1114
root 46.904 16.4251 -5.70297 -897.637 21.78 -174.894
lowerback -1.26319 1.39354 0.382022
upperback 4.8109 2.0131 0.0957787
thorax 5.69497 1.08406 0.0173133
lowerneck -9.37985 3.67741 4.4052
upperneck 23.2399 8.0494 -9.16118
head 9.39466 3.74164 -2.92401
rclavicle 3.70733e-014 -2.38542e-015
rhumerus -14.5444 23.0833 -81.9857
rradius 40.1004
rwrist -0.742252
rhand -7.87762 8.60911
rfingers 7.12502
rthumb 18.0266 -20.5755
lclavicle 3.70733e-014 -2.38542e-015
lhumerus -23.6522 0.378845 67.6916
lradius 16.6275
lwrist 6.68275
lhand -24.4821 20.3947
lfingers 7.12502
lthumb 2.0118 50.3649
rfemur -14.4767 -14.1286 22.9752
rtibia 68.2916
rfoot -13.8945 -10.3342
rtoes 4.94757
lfemur -19.1414 19.1333 -29.0446
ltibia 27.7997
lfoot -30.0091 29.703
ltoes 18.9637
1115
root 46.9546 16.42 -5.76362 -897.824 20.6589 -175.163
lowerback -1.15856 1.31304 0.0586131
upperback 4.92138 1.93138 0.0812914
thorax 5.74095 1.03394 0.17739
lowerneck -9.3545 3.6445 4.38951
upperneck 23.1665 8.02027 -9.21078
head 9.36329 3.72725 -2.94147
rclavicle -8.34896e-015 -3.18055e-015
rhumerus -15.3555 22.4597 -82.4053
rradius 39.4294
rwrist -0.465633
rhand -8.12265 8.56139
rfingers 7.12502
rthumb 17.7908 -20.6448
lclavicle -8.34896e-015 -3.18055e-015
lhumerus -24.0578 -0.277481 68.5981
lradius 16.8731
lwrist 6.94268
lhand -23.8768 20.4055
lfingers 7.12502
lthumb 2.59633 50.3694
rfemur -15.2676 -13.4708 22.5924
rtibia 68.9901
rfoot -14.2502 -10.0927
rtoes 4.04088
lfemur -18.7724 18.9094 -29.1559
ltibia 27.879
lfoot -29.5931 29.1093
ltoes 18.5202
1116
root 47.0044 16.4151 -5.82399 -897.957 19.5124 -175.393
lowerback -1.08268 1.24237 -0.210048
upperback 5.01972 1.85967 0.0643946
thorax 5.79354 0.990676 0.305713
lowerneck -9.32944 3.60209 4.38822
upperneck 23.1156 7.97701 -9.2496
head 9.3387 3.70891 -2.95937
rclavicle -6.16232e-015 -2.38542e-015
rhumerus -16.1471 21.715 -82.8115
rradius 38.671
rwrist -0.117972
rhand -8.39203 8.5187
rfingers 7.12502
rthumb 17.5316 -20.7108
lclavicle -6.16232e-015 -2.38542e-015
lhumerus -24.4909 -1.12693 69.5602
lradius 17.2653
lwrist 7.40661
lhand -23.1873 20.3933
lfingers 7.12502
lthumb 3.2622 50.3481
rfemur -16.0795 -12.7637 22.2553
rtibia 69.5453
rfoot -14.811 -10.04
rtoes 3.55285
lfemur -18.4615 18.6744 -29.2385
ltibia 27.9902
lfoot -29.186 28.4951
ltoes 18.0748
1117
root 47.0534 16.4108 -5.88403 -898.041 18.3368 -175.579
lowerback -1.03154 1.18005 -0.420811
upperback 5.10716 1.796 0.0474821
thorax 5.8513 0.95352 0.402691
lowerneck -9.31082 3.54984 4.40132
upperneck 23.0917 7.91938 -9.27659
head 9.32358 3.68636 -2.97726
rclavicle 8.84592e-015 7.95139e-016
rhumerus -16.9163 20.8542 -83.1987
rradius 37.8329
rwrist 0.293859
rhand -8.69159 8.47651
rfingers 7.12502
rthumb 17.2433 -20.7785
lclavicle 8.84592e-015 7.95139e-016
lhumerus -24.9489 -2.13211 70.564
lradius 17.7927
lwrist 8.0411
lhand -22.4263 20.3568
lfingers 7.12502
lthumb 3.99707 50.299
rfemur -16.9043 -12.0133 21.9675
rtibia 69.9525
rfoot -15.5404 -10.1433
rtoes 3.44543
lfemur -18.206 18.4327 -29.2839
ltibia 28.1342
lfoot -28.7828 27.8542
ltoes 17.6279
